<svg width="2794" height="826" xmlns="http://www.w3.org/2000/svg" xmlns:xlink="http://www.w3.org/1999/xlink" overflow="hidden"><defs><clipPath id="clip0"><rect x="-752" y="727" width="2794" height="826"/></clipPath><clipPath id="clip1"><rect x="-541" y="1190" width="257" height="255"/></clipPath><clipPath id="clip2"><rect x="-541" y="1190" width="257" height="255"/></clipPath><clipPath id="clip3"><rect x="-541" y="1190" width="257" height="255"/></clipPath><clipPath id="clip4"><rect x="-215" y="1190" width="255" height="256"/></clipPath><clipPath id="clip5"><rect x="-215" y="1190" width="255" height="256"/></clipPath><clipPath id="clip6"><rect x="-215" y="1190" width="255" height="256"/></clipPath><clipPath id="clip7"><rect x="97" y="1186" width="255" height="257"/></clipPath><clipPath id="clip8"><rect x="97" y="1186" width="255" height="257"/></clipPath><clipPath id="clip9"><rect x="97" y="1186" width="255" height="257"/></clipPath><clipPath id="clip10"><rect x="416" y="1184" width="257" height="256"/></clipPath><clipPath id="clip11"><rect x="416" y="1184" width="257" height="256"/></clipPath><clipPath id="clip12"><rect x="416" y="1184" width="257" height="256"/></clipPath><clipPath id="clip13"><rect x="355" y="1335" width="419" height="216"/></clipPath><clipPath id="clip14"><rect x="355" y="1335" width="419" height="216"/></clipPath><clipPath id="clip15"><rect x="355" y="1335" width="419" height="216"/></clipPath><clipPath id="clip16"><rect x="355" y="1335" width="419" height="216"/></clipPath><clipPath id="clip17"><rect x="26" y="1336" width="419" height="218"/></clipPath><clipPath id="clip18"><rect x="26" y="1336" width="419" height="218"/></clipPath><clipPath id="clip19"><rect x="26" y="1336" width="419" height="218"/></clipPath><clipPath id="clip20"><rect x="26" y="1336" width="419" height="218"/></clipPath><clipPath id="clip21"><rect x="-296" y="1332" width="417" height="216"/></clipPath><clipPath id="clip22"><rect x="-296" y="1332" width="417" height="216"/></clipPath><clipPath id="clip23"><rect x="-296" y="1332" width="417" height="216"/></clipPath><clipPath id="clip24"><rect x="-296" y="1332" width="418" height="216"/></clipPath><clipPath id="clip25"><rect x="-623" y="1336" width="419" height="218"/></clipPath><clipPath id="clip26"><rect x="-623" y="1336" width="419" height="218"/></clipPath><clipPath id="clip27"><rect x="-623" y="1336" width="419" height="218"/></clipPath><clipPath id="clip28"><rect x="-623" y="1336" width="419" height="218"/></clipPath><clipPath id="clip29"><rect x="1160" y="1314" width="713" height="232"/></clipPath><clipPath id="clip30"><rect x="1160" y="1314" width="713" height="232"/></clipPath><clipPath id="clip31"><rect x="1160" y="1314" width="713" height="232"/></clipPath><clipPath id="clip32"><rect x="1160" y="1314" width="713" height="232"/></clipPath><clipPath id="clip33"><rect x="-536" y="768" width="1169" height="242"/></clipPath><clipPath id="clip34"><rect x="-536" y="768" width="1169" height="242"/></clipPath><clipPath id="clip35"><rect x="-536" y="768" width="1169" height="242"/></clipPath><clipPath id="clip36"><rect x="-536" y="768" width="1169" height="242"/></clipPath><clipPath id="clip37"><rect x="1228" y="875" width="558" height="335"/></clipPath><clipPath id="clip38"><rect x="1228" y="875" width="558" height="335"/></clipPath><clipPath id="clip39"><rect x="1228" y="875" width="558" height="335"/></clipPath><clipPath id="clip40"><rect x="1228" y="875" width="558" height="335"/></clipPath></defs><g clip-path="url(#clip0)" transform="translate(752 -727)"><rect x="-752" y="727" width="2794" height="807" fill="#FFFFFF"/><path d="M-473.5 976.5 1217.19 976.5" stroke="#3A548A" stroke-width="22.9167" stroke-miterlimit="8" fill="none" fill-rule="evenodd"/><rect x="1219" y="863" width="579" height="432" stroke="#3A548A" stroke-width="18.3333" stroke-miterlimit="8" fill="none"/><path d="M-463.5 976.5-463.5 1162.46" stroke="#3A548A" stroke-width="22.9167" stroke-miterlimit="8" fill="none" fill-rule="evenodd"/><path d="M-150.5 966.5-150.5 1174.45" stroke="#3A548A" stroke-width="22.9167" stroke-miterlimit="8" fill="none" fill-rule="evenodd"/><path d="M161.5 966.5 161.5 1174.45" stroke="#3A548A" stroke-width="22.9167" stroke-miterlimit="8" fill="none" fill-rule="evenodd"/><path d="M473.5 966.5 473.5 1174.45" stroke="#3A548A" stroke-width="22.9167" stroke-miterlimit="8" fill="none" fill-rule="evenodd"/><path d="M588.5 966.5 588.5 1174.45" stroke="#3A548A" stroke-width="22.9167" stroke-miterlimit="8" fill="none" fill-rule="evenodd"/><path d="M-543.802 1330C-557.562 1308.73-571.322 1287.47-573.288 1268.4-575.254 1249.33-574.271 1224.4-555.596 1215.6-536.922 1206.8-477.95 1218.53-461.242 1215.6-444.534 1212.67-449.939 1205.33-455.345 1198" stroke="#FFC000" stroke-width="13.75" stroke-miterlimit="8" fill="none" fill-rule="evenodd"/><path d="M-420.626 1193.14-425.759 1207.62C-428.594 1215.61-439.347 1219.1-449.778 1215.4-460.209 1211.7-466.366 1202.22-463.531 1194.23L-458.399 1179.75Z" fill="#FFC000" fill-rule="evenodd"/><path d="M0 0 10.4135 26.0366" stroke="#FFC000" stroke-width="11.4583" stroke-miterlimit="8" fill="none" fill-rule="evenodd" transform="matrix(-1 0 0 1 -442.086 1172.5)"/><path d="M0 0 10.4135 26.0366" stroke="#FFC000" stroke-width="11.4583" stroke-miterlimit="8" fill="none" fill-rule="evenodd" transform="matrix(-1 0 0 1 -424.086 1177.5)"/><g clip-path="url(#clip1)"><g clip-path="url(#clip2)"><g clip-path="url(#clip3)"><path d="M84.6667 164.042C84.6667 175.732 75.19 185.208 63.5 185.208 51.81 185.208 42.3333 175.732 42.3333 164.042 42.3333 152.352 51.81 142.875 63.5 142.875 75.19 142.875 84.6667 152.352 84.6667 164.042Z" fill="#D9D9D9" transform="matrix(1.00394 0 0 1 -540 1190)"/><path d="M211.667 164.042C211.667 175.732 202.19 185.208 190.5 185.208 178.81 185.208 169.333 175.732 169.333 164.042 169.333 152.352 178.81 142.875 190.5 142.875 202.19 142.875 211.667 152.352 211.667 164.042Z" fill="#D9D9D9" transform="matrix(1.00394 0 0 1 -540 1190)"/><path d="M103.188 111.125 103.188 79.375 139.435 79.375C142.346 79.375 144.992 80.4333 146.844 82.55L175.419 111.125 103.188 111.125ZM92.6042 111.125 25.6646 111.125 54.2396 82.55C56.3563 80.4333 59.0021 79.375 61.6479 79.375L92.6042 79.375 92.6042 111.125ZM216.958 111.125 194.998 111.125C192.088 111.125 189.442 110.067 187.59 107.95L154.252 74.8771C150.283 70.9083 144.992 68.7917 139.171 68.7917L61.6479 68.7917C56.0917 68.7917 50.5354 70.9083 46.5667 74.8771L13.7583 107.95C11.6417 110.067 10.5833 112.713 10.5833 115.623L10.5833 142.875C10.5833 154.517 20.1083 164.042 31.75 164.042L34.3958 164.042C34.3958 147.902 47.3604 134.938 63.5 134.938 79.6396 134.938 92.6042 147.902 92.6042 164.042L161.396 164.042C161.396 147.902 174.36 134.938 190.5 134.938 206.64 134.938 219.604 147.902 219.604 164.042L232.833 164.042C238.654 164.042 243.417 159.279 243.417 153.458L243.417 137.583C243.417 123.031 231.51 111.125 216.958 111.125Z" fill="#D9D9D9" transform="matrix(1.00394 0 0 1 -540 1190)"/></g></g></g><path d="M-218.802 1331C-232.562 1309.57-246.322 1288.14-248.288 1268.93-250.253 1249.72-249.27 1224.6-230.596 1215.73-211.922 1206.87-152.951 1218.69-136.242 1215.73-119.534 1212.78-124.939 1205.39-130.345 1198" stroke="#FFC000" stroke-width="13.75" stroke-miterlimit="8" fill="none" fill-rule="evenodd"/><path d="M-95.5698 1193.8-100.703 1208.27C-103.537 1216.27-114.291 1219.75-124.721 1216.05-135.152 1212.36-141.31 1202.88-138.475 1194.88L-133.342 1180.41Z" fill="#FFC000" fill-rule="evenodd"/><path d="M0 0 10.4135 26.0366" stroke="#FFC000" stroke-width="11.4583" stroke-miterlimit="8" fill="none" fill-rule="evenodd" transform="matrix(-1 0 0 1 -116.086 1172.5)"/><path d="M0 0 10.4135 26.0366" stroke="#FFC000" stroke-width="11.4583" stroke-miterlimit="8" fill="none" fill-rule="evenodd" transform="matrix(-1 0 0 1 -99.0866 1177.5)"/><g clip-path="url(#clip4)"><g clip-path="url(#clip5)"><g clip-path="url(#clip6)"><path d="M84.9999 164.687C84.9999 176.423 75.486 185.937 63.7499 185.937 52.0139 185.937 42.5 176.423 42.5 164.687 42.5 152.951 52.0139 143.437 63.7499 143.437 75.486 143.437 84.9999 152.951 84.9999 164.687Z" fill="#D9D9D9" transform="matrix(1 0 0 1 -215 1190)"/><path d="M212.5 164.687C212.5 176.423 202.986 185.937 191.25 185.937 179.514 185.937 170 176.423 170 164.687 170 152.951 179.514 143.437 191.25 143.437 202.986 143.437 212.5 152.951 212.5 164.687Z" fill="#D9D9D9" transform="matrix(1 0 0 1 -215 1190)"/><path d="M103.594 111.562 103.594 79.6874 139.984 79.6874C142.906 79.6874 145.562 80.7499 147.422 82.8749L176.109 111.562 103.594 111.562ZM92.9686 111.562 25.7656 111.562 54.4531 82.8749C56.5781 80.7499 59.2343 79.6874 61.8906 79.6874L92.9686 79.6874 92.9686 111.562ZM217.812 111.562 195.765 111.562C192.844 111.562 190.187 110.5 188.328 108.375L154.859 75.1718C150.875 71.1874 145.562 69.0624 139.719 69.0624L61.8906 69.0624C56.3124 69.0624 50.7343 71.1874 46.7499 75.1718L13.8125 108.375C11.6875 110.5 10.625 113.156 10.625 116.078L10.625 143.437C10.625 155.125 20.1875 164.687 31.875 164.687L34.5312 164.687C34.5312 148.484 47.5468 135.469 63.7499 135.469 79.953 135.469 92.9686 148.484 92.9686 164.687L162.031 164.687C162.031 148.484 175.047 135.469 191.25 135.469 207.453 135.469 220.468 148.484 220.468 164.687L233.75 164.687C239.593 164.687 244.375 159.906 244.375 154.062L244.375 138.125C244.375 123.515 232.422 111.562 217.812 111.562Z" fill="#D9D9D9" transform="matrix(1 0 0 1 -215 1190)"/></g></g></g><path d="M94.1979 1328C80.4379 1306.57 66.6779 1285.14 64.7121 1265.93 62.7464 1246.72 63.7294 1221.6 82.4037 1212.73 101.078 1203.87 160.05 1215.69 176.758 1212.73 193.466 1209.78 188.061 1202.39 182.655 1195" stroke="#FFC000" stroke-width="13.75" stroke-miterlimit="8" fill="none" fill-rule="evenodd"/><path d="M217.123 1191.03 211.99 1205.5C209.155 1213.5 198.402 1216.98 187.971 1213.28 177.541 1209.58 171.383 1200.1 174.218 1192.11L179.351 1177.63Z" fill="#FFC000" fill-rule="evenodd"/><path d="M0 0 10.4135 26.0366" stroke="#FFC000" stroke-width="11.4583" stroke-miterlimit="8" fill="none" fill-rule="evenodd" transform="matrix(-1 0 0 1 195.914 1169.5)"/><path d="M0 0 10.4135 26.0366" stroke="#FFC000" stroke-width="11.4583" stroke-miterlimit="8" fill="none" fill-rule="evenodd" transform="matrix(-1 0 0 1 212.914 1175.5)"/><g clip-path="url(#clip7)"><g clip-path="url(#clip8)"><g clip-path="url(#clip9)"><path d="M84.6667 164.042C84.6667 175.732 75.19 185.208 63.5 185.208 51.81 185.208 42.3333 175.732 42.3333 164.042 42.3333 152.352 51.81 142.875 63.5 142.875 75.19 142.875 84.6667 152.352 84.6667 164.042Z" fill="#D9D9D9" transform="matrix(1 0 0 1.00394 98 1187)"/><path d="M211.667 164.042C211.667 175.732 202.19 185.208 190.5 185.208 178.81 185.208 169.333 175.732 169.333 164.042 169.333 152.352 178.81 142.875 190.5 142.875 202.19 142.875 211.667 152.352 211.667 164.042Z" fill="#D9D9D9" transform="matrix(1 0 0 1.00394 98 1187)"/><path d="M103.188 111.125 103.188 79.375 139.435 79.375C142.346 79.375 144.992 80.4333 146.844 82.55L175.419 111.125 103.188 111.125ZM92.6042 111.125 25.6646 111.125 54.2396 82.55C56.3563 80.4333 59.0021 79.375 61.6479 79.375L92.6042 79.375 92.6042 111.125ZM216.958 111.125 194.998 111.125C192.088 111.125 189.442 110.067 187.59 107.95L154.252 74.8771C150.283 70.9083 144.992 68.7917 139.171 68.7917L61.6479 68.7917C56.0917 68.7917 50.5354 70.9083 46.5667 74.8771L13.7583 107.95C11.6417 110.067 10.5833 112.713 10.5833 115.623L10.5833 142.875C10.5833 154.517 20.1083 164.042 31.75 164.042L34.3958 164.042C34.3958 147.902 47.3604 134.938 63.5 134.938 79.6396 134.938 92.6042 147.902 92.6042 164.042L161.396 164.042C161.396 147.902 174.36 134.938 190.5 134.938 206.64 134.938 219.604 147.902 219.604 164.042L232.833 164.042C238.654 164.042 243.417 159.279 243.417 153.458L243.417 137.583C243.417 123.031 231.51 111.125 216.958 111.125Z" fill="#D9D9D9" transform="matrix(1 0 0 1.00394 98 1187)"/></g></g></g><path d="M413.198 1326C399.438 1304.57 385.678 1283.14 383.712 1263.93 381.746 1244.72 382.729 1219.6 401.404 1210.73 420.078 1201.87 479.05 1213.69 495.758 1210.73 512.466 1207.78 507.061 1200.39 501.655 1193" stroke="#FFC000" stroke-width="13.75" stroke-miterlimit="8" fill="none" fill-rule="evenodd"/><path d="M536.567 1188.63 531.434 1203.11C528.6 1211.1 517.846 1214.58 507.415 1210.89 496.985 1207.19 490.827 1197.71 493.662 1189.71L498.795 1175.24Z" fill="#FFC000" fill-rule="evenodd"/><path d="M0 0 10.4135 26.0366" stroke="#FFC000" stroke-width="11.4583" stroke-miterlimit="8" fill="none" fill-rule="evenodd" transform="matrix(-1 0 0 1 515.914 1167.5)"/><path d="M0 0 10.4135 26.0366" stroke="#FFC000" stroke-width="11.4583" stroke-miterlimit="8" fill="none" fill-rule="evenodd" transform="matrix(-1 0 0 1 532.914 1172.5)"/><g clip-path="url(#clip10)"><g clip-path="url(#clip11)"><g clip-path="url(#clip12)"><path d="M502 1349.69C502 1361.42 492.486 1370.94 480.75 1370.94 469.014 1370.94 459.5 1361.42 459.5 1349.69 459.5 1337.95 469.014 1328.44 480.75 1328.44 492.486 1328.44 502 1337.95 502 1349.69Z" fill="#D9D9D9"/><path d="M629.5 1349.69C629.5 1361.42 619.986 1370.94 608.25 1370.94 596.514 1370.94 587 1361.42 587 1349.69 587 1337.95 596.514 1328.44 608.25 1328.44 619.986 1328.44 629.5 1337.95 629.5 1349.69Z" fill="#D9D9D9"/><path d="M520.594 1296.56 520.594 1264.69 556.984 1264.69C559.906 1264.69 562.562 1265.75 564.422 1267.87L593.109 1296.56 520.594 1296.56ZM509.969 1296.56 442.766 1296.56 471.453 1267.87C473.578 1265.75 476.234 1264.69 478.891 1264.69L509.969 1264.69 509.969 1296.56ZM634.812 1296.56 612.766 1296.56C609.844 1296.56 607.188 1295.5 605.328 1293.37L571.859 1260.17C567.875 1256.19 562.562 1254.06 556.719 1254.06L478.891 1254.06C473.312 1254.06 467.734 1256.19 463.75 1260.17L430.812 1293.37C428.687 1295.5 427.625 1298.16 427.625 1301.08L427.625 1328.44C427.625 1340.12 437.187 1349.69 448.875 1349.69L451.531 1349.69C451.531 1333.48 464.547 1320.47 480.75 1320.47 496.953 1320.47 509.969 1333.48 509.969 1349.69L579.031 1349.69C579.031 1333.48 592.047 1320.47 608.25 1320.47 624.453 1320.47 637.469 1333.48 637.469 1349.69L650.75 1349.69C656.594 1349.69 661.375 1344.91 661.375 1339.06L661.375 1323.12C661.375 1308.52 649.422 1296.56 634.812 1296.56Z" fill="#D9D9D9"/></g></g></g><g clip-path="url(#clip13)"><g clip-path="url(#clip14)"><g clip-path="url(#clip15)"><g clip-path="url(#clip16)"><text fill="#3A548A" font-family="Calibri,Calibri_MSFontService,sans-serif" font-weight="700" font-size="92" transform="matrix(1.11765 0 0 1.11917 417.253 1463)">11 <tspan font-size="92" x="115" y="0">kW</tspan></text></g></g></g></g><g clip-path="url(#clip17)"><g clip-path="url(#clip18)"><g clip-path="url(#clip19)"><g clip-path="url(#clip20)"><text fill="#3A548A" font-family="Calibri,Calibri_MSFontService,sans-serif" font-weight="700" font-size="92" transform="matrix(1.11765 0 0 1.11917 88.2531 1465)">11 <tspan font-size="92" x="115" y="0">kW</tspan></text></g></g></g></g><g clip-path="url(#clip21)"><g clip-path="url(#clip22)"><g clip-path="url(#clip23)"><g clip-path="url(#clip24)"><text fill="#3A548A" font-family="Calibri,Calibri_MSFontService,sans-serif" font-weight="700" font-size="92" transform="matrix(1.11497 0 0 1.11917 -233.896 1460)">11 <tspan font-size="92" x="115" y="0">kW</tspan></text></g></g></g></g><g clip-path="url(#clip25)"><g clip-path="url(#clip26)"><g clip-path="url(#clip27)"><g clip-path="url(#clip28)"><text fill="#3A548A" font-family="Calibri,Calibri_MSFontService,sans-serif" font-weight="700" font-size="92" transform="matrix(1.11765 0 0 1.11917 -560.747 1465)">11 <tspan font-size="92" x="115" y="0">kW</tspan></text></g></g></g></g><g clip-path="url(#clip29)"><g clip-path="url(#clip30)"><g clip-path="url(#clip31)"><g clip-path="url(#clip32)"><text fill="#3A548A" font-family="Calibri,Calibri_MSFontService,sans-serif" font-weight="700" font-size="92" transform="matrix(1.18896 0 0 1.19072 1227.37 1451)">m<tspan font-size="92" x="74.479" y="0">ax</tspan><tspan font-size="92" x="160.479" y="0">. </tspan><tspan font-size="92" x="206.479" y="0">44 </tspan><tspan font-size="92" x="321.479" y="0">kW</tspan></text></g></g></g></g><g clip-path="url(#clip33)"><g clip-path="url(#clip34)"><g clip-path="url(#clip35)"><g clip-path="url(#clip36)"><text fill="#3A548A" font-family="Calibri,Calibri_MSFontService,sans-serif" font-weight="400" font-size="92" transform="matrix(1.25054 0 0 1.2487 -466.67 911)">Anschlusserweiterung</text></g></g></g></g><g clip-path="url(#clip37)"><g clip-path="url(#clip38)"><g clip-path="url(#clip39)"><g clip-path="url(#clip40)"><text fill="#3A548A" font-family="Calibri,Calibri_MSFontService,sans-serif" font-weight="400" font-size="92" transform="matrix(1.10099 0 0 1.10231 1290.26 1002)">Anschluss<tspan font-size="92" x="366.094" y="0">-</tspan><tspan font-size="92" x="0" y="109.769">leistun</tspan><tspan font-size="92" x="250.479" y="109.769">g</tspan></text></g></g></g></g></g></svg>