<svg width="2794" height="859" xmlns="http://www.w3.org/2000/svg" xmlns:xlink="http://www.w3.org/1999/xlink" overflow="hidden"><defs><clipPath id="clip0"><rect x="-752" y="1772" width="2794" height="859"/></clipPath><clipPath id="clip1"><rect x="-543" y="2266" width="256" height="256"/></clipPath><clipPath id="clip2"><rect x="-543" y="2266" width="256" height="256"/></clipPath><clipPath id="clip3"><rect x="-543" y="2266" width="256" height="256"/></clipPath><clipPath id="clip4"><rect x="-200" y="2263" width="257" height="256"/></clipPath><clipPath id="clip5"><rect x="-200" y="2263" width="257" height="256"/></clipPath><clipPath id="clip6"><rect x="-200" y="2263" width="257" height="256"/></clipPath><clipPath id="clip7"><rect x="-513" y="1802" width="1332" height="253"/></clipPath><clipPath id="clip8"><rect x="-513" y="1802" width="1332" height="253"/></clipPath><clipPath id="clip9"><rect x="-513" y="1802" width="1332" height="253"/></clipPath><clipPath id="clip10"><rect x="-513" y="1802" width="1332" height="253"/></clipPath><clipPath id="clip11"><rect x="1197" y="2212" width="712" height="232"/></clipPath><clipPath id="clip12"><rect x="1197" y="2212" width="712" height="232"/></clipPath><clipPath id="clip13"><rect x="1197" y="2212" width="712" height="232"/></clipPath><clipPath id="clip14"><rect x="1197" y="2212" width="712" height="232"/></clipPath><clipPath id="clip15"><rect x="-615" y="2414" width="417" height="218"/></clipPath><clipPath id="clip16"><rect x="-615" y="2414" width="417" height="218"/></clipPath><clipPath id="clip17"><rect x="-615" y="2414" width="417" height="218"/></clipPath><clipPath id="clip18"><rect x="-615" y="2414" width="418" height="218"/></clipPath><clipPath id="clip19"><rect x="-277" y="2411" width="419" height="215"/></clipPath><clipPath id="clip20"><rect x="-277" y="2411" width="419" height="215"/></clipPath><clipPath id="clip21"><rect x="-277" y="2411" width="419" height="215"/></clipPath><clipPath id="clip22"><rect x="-277" y="2411" width="419" height="215"/></clipPath><clipPath id="clip23"><rect x="1262" y="1919" width="559" height="336"/></clipPath><clipPath id="clip24"><rect x="1262" y="1919" width="559" height="336"/></clipPath><clipPath id="clip25"><rect x="1262" y="1919" width="559" height="336"/></clipPath><clipPath id="clip26"><rect x="1262" y="1919" width="559" height="336"/></clipPath></defs><g clip-path="url(#clip0)" transform="translate(752 -1772)"><rect x="-752" y="1772" width="2794" height="807" fill="#FFFFFF"/><g clip-path="url(#clip1)"><g clip-path="url(#clip2)"><g clip-path="url(#clip3)"><path d="M-457 2430.69C-457 2442.42-466.514 2451.94-478.25 2451.94-489.986 2451.94-499.5 2442.42-499.5 2430.69-499.5 2418.95-489.986 2409.44-478.25 2409.44-466.514 2409.44-457 2418.95-457 2430.69Z" fill="#D9D9D9"/><path d="M-329.5 2430.69C-329.5 2442.42-339.014 2451.94-350.75 2451.94-362.486 2451.94-372 2442.42-372 2430.69-372 2418.95-362.486 2409.44-350.75 2409.44-339.014 2409.44-329.5 2418.95-329.5 2430.69Z" fill="#D9D9D9"/><path d="M-438.406 2377.56-438.406 2345.69-402.016 2345.69C-399.094 2345.69-396.438 2346.75-394.578 2348.88L-365.891 2377.56-438.406 2377.56ZM-449.031 2377.56-516.234 2377.56-487.547 2348.88C-485.422 2346.75-482.766 2345.69-480.109 2345.69L-449.031 2345.69-449.031 2377.56ZM-324.188 2377.56-346.234 2377.56C-349.156 2377.56-351.813 2376.5-353.672 2374.38L-387.141 2341.17C-391.125 2337.19-396.438 2335.06-402.281 2335.06L-480.109 2335.06C-485.688 2335.06-491.266 2337.19-495.25 2341.17L-528.188 2374.38C-530.313 2376.5-531.375 2379.16-531.375 2382.08L-531.375 2409.44C-531.375 2421.12-521.813 2430.69-510.125 2430.69L-507.469 2430.69C-507.469 2414.48-494.453 2401.47-478.25 2401.47-462.047 2401.47-449.031 2414.48-449.031 2430.69L-379.969 2430.69C-379.969 2414.48-366.953 2401.47-350.75 2401.47-334.547 2401.47-321.531 2414.48-321.531 2430.69L-308.25 2430.69C-302.406 2430.69-297.625 2425.91-297.625 2420.06L-297.625 2404.12C-297.625 2389.52-309.578 2377.56-324.188 2377.56Z" fill="#D9D9D9"/></g></g></g><path d="M-442.5 2010.5 1248.19 2010.5" stroke="#3A548A" stroke-width="22.9167" stroke-miterlimit="8" fill="none" fill-rule="evenodd"/><path d="M-431.5 1998.5-431.5 2206.45" stroke="#3A548A" stroke-width="22.9167" stroke-miterlimit="8" fill="none" fill-rule="evenodd"/><path d="M-110.5 2010.5-110.499 2218.45" stroke="#3A548A" stroke-width="22.9167" stroke-miterlimit="8" fill="none" fill-rule="evenodd"/><path d="M207.5 2010.5 207.501 2218.45" stroke="#3A548A" stroke-width="22.9167" stroke-miterlimit="8" fill="none" fill-rule="evenodd"/><path d="M414.5 2010.5 414.5 2218.45" stroke="#3A548A" stroke-width="22.9167" stroke-miterlimit="8" fill="none" fill-rule="evenodd"/><path d="M620.5 2010.5 620.5 2218.45" stroke="#3A548A" stroke-width="22.9167" stroke-miterlimit="8" fill="none" fill-rule="evenodd"/><path d="M-544.802 2393C-558.562 2371.57-572.322 2350.14-574.288 2330.93-576.254 2311.72-575.271 2286.6-556.596 2277.73-537.922 2268.87-478.951 2280.69-462.242 2277.73-445.534 2274.78-450.939 2267.39-456.345 2260" stroke="#FFC000" stroke-width="13.75" stroke-miterlimit="8" fill="none" fill-rule="evenodd"/><path d="M-421.219 2255.91-426.352 2270.39C-429.187 2278.38-439.94 2281.86-450.371 2278.17-460.801 2274.47-466.959 2264.99-464.124 2256.99L-458.992 2242.52Z" fill="#FFC000" fill-rule="evenodd"/><path d="M0 0 10.4135 26.0366" stroke="#FFC000" stroke-width="11.4583" stroke-miterlimit="8" fill="none" fill-rule="evenodd" transform="matrix(-1 0 0 1 -442.086 2234.5)"/><path d="M0 0 10.4135 26.0366" stroke="#FFC000" stroke-width="11.4583" stroke-miterlimit="8" fill="none" fill-rule="evenodd" transform="matrix(-1 0 0 1 -425.086 2240.5)"/><path d="M-202.802 2405C-216.562 2383.57-230.322 2362.14-232.288 2342.93-234.254 2323.72-233.271 2298.6-214.596 2289.73-195.922 2280.87-136.95 2292.69-120.242 2289.73-103.534 2286.78-108.939 2279.39-114.345 2272" stroke="#FFC000" stroke-width="13.75" stroke-miterlimit="8" fill="none" fill-rule="evenodd"/><path d="M-79.1871 2267.91-84.3198 2282.39C-87.1546 2290.38-97.9082 2293.86-108.339 2290.17-118.769 2286.47-124.927 2276.99-122.092 2268.99L-116.959 2254.52Z" fill="#FFC000" fill-rule="evenodd"/><path d="M0 0 10.4135 26.0366" stroke="#FFC000" stroke-width="11.4583" stroke-miterlimit="8" fill="none" fill-rule="evenodd" transform="matrix(-1 0 0 1 -100.086 2246.5)"/><path d="M0 0 10.4135 26.0366" stroke="#FFC000" stroke-width="11.4583" stroke-miterlimit="8" fill="none" fill-rule="evenodd" transform="matrix(-1 0 0 1 -83.0864 2252.5)"/><rect x="1252" y="1925" width="580" height="293" stroke="#3A548A" stroke-width="18.3333" stroke-miterlimit="8" fill="none"/><g clip-path="url(#clip4)"><g clip-path="url(#clip5)"><g clip-path="url(#clip6)"><path d="M-114 2428.69C-114 2440.42-123.514 2449.94-135.25 2449.94-146.986 2449.94-156.5 2440.42-156.5 2428.69-156.5 2416.95-146.986 2407.44-135.25 2407.44-123.514 2407.44-114 2416.95-114 2428.69Z" fill="#D9D9D9"/><path d="M13.5 2428.69C13.5 2440.42 3.98608 2449.94-7.74998 2449.94-19.486 2449.94-29 2440.42-29 2428.69-29 2416.95-19.486 2407.44-7.74998 2407.44 3.98608 2407.44 13.5 2416.95 13.5 2428.69Z" fill="#D9D9D9"/><path d="M-95.4062 2375.56-95.4062 2343.69-59.0156 2343.69C-56.0938 2343.69-53.4375 2344.75-51.5781 2346.88L-22.8906 2375.56-95.4062 2375.56ZM-106.031 2375.56-173.234 2375.56-144.547 2346.88C-142.422 2344.75-139.766 2343.69-137.109 2343.69L-106.031 2343.69-106.031 2375.56ZM18.8125 2375.56-3.23436 2375.56C-6.15623 2375.56-8.81248 2374.5-10.6718 2372.38L-44.1406 2339.17C-48.125 2335.19-53.4375 2333.06-59.2812 2333.06L-137.109 2333.06C-142.688 2333.06-148.266 2335.19-152.25 2339.17L-185.188 2372.38C-187.313 2374.5-188.375 2377.16-188.375 2380.08L-188.375 2407.44C-188.375 2419.12-178.813 2428.69-167.125 2428.69L-164.469 2428.69C-164.469 2412.48-151.453 2399.47-135.25 2399.47-119.047 2399.47-106.031 2412.48-106.031 2428.69L-36.9687 2428.69C-36.9687 2412.48-23.9531 2399.47-7.74998 2399.47 8.45314 2399.47 21.4688 2412.48 21.4688 2428.69L34.75 2428.69C40.5938 2428.69 45.375 2423.91 45.375 2418.06L45.375 2402.12C45.375 2387.52 33.4219 2375.56 18.8125 2375.56Z" fill="#D9D9D9"/></g></g></g><g clip-path="url(#clip7)"><g clip-path="url(#clip8)"><g clip-path="url(#clip9)"><g clip-path="url(#clip10)"><text fill="#3A548A" font-family="Calibri,Calibri_MSFontService,sans-serif" font-weight="400" font-size="92" transform="matrix(1.3049 0 0 1.3057 -440.16 1952)">Ohne Lastmanagement</text></g></g></g></g><g clip-path="url(#clip11)"><g clip-path="url(#clip12)"><g clip-path="url(#clip13)"><g clip-path="url(#clip14)"><text fill="#3A548A" font-family="Calibri,Calibri_MSFontService,sans-serif" font-weight="700" font-size="92" transform="matrix(1.18928 0 0 1.19072 1263.68 2348)">m<tspan font-size="92" x="74.4792" y="0">ax</tspan>. <tspan font-size="92" x="206.479" y="0">30 </tspan>kW</text></g></g></g></g><g clip-path="url(#clip15)"><g clip-path="url(#clip16)"><g clip-path="url(#clip17)"><g clip-path="url(#clip18)"><text fill="#3A548A" font-family="Calibri,Calibri_MSFontService,sans-serif" font-weight="700" font-size="92" transform="matrix(1.11497 0 0 1.11917 -552.896 2543)">11 <tspan font-size="92" x="115" y="0">kW</tspan></text></g></g></g></g><g clip-path="url(#clip19)"><g clip-path="url(#clip20)"><g clip-path="url(#clip21)"><g clip-path="url(#clip22)"><text fill="#3A548A" font-family="Calibri,Calibri_MSFontService,sans-serif" font-weight="700" font-size="92" transform="matrix(1.11765 0 0 1.11399 -213.747 2538)">11 <tspan font-size="92" x="115" y="0">kW</tspan></text></g></g></g></g><g clip-path="url(#clip23)"><g clip-path="url(#clip24)"><g clip-path="url(#clip25)"><g clip-path="url(#clip26)"><text fill="#3A548A" font-family="Calibri,Calibri_MSFontService,sans-serif" font-weight="400" font-size="92" transform="matrix(1.10297 0 0 1.10561 1324.37 2046)">Anschluss<tspan font-size="92" x="366.094" y="0">-</tspan><tspan font-size="92" x="0" y="110.346">leistun</tspan><tspan font-size="92" x="250.479" y="110.346">g</tspan></text></g></g></g></g></g></svg>