<svg width="2794" height="807" xmlns="http://www.w3.org/2000/svg" xmlns:xlink="http://www.w3.org/1999/xlink" overflow="hidden"><defs><clipPath id="clip0"><rect x="-752" y="-336" width="2794" height="807"/></clipPath><clipPath id="clip1"><rect x="-539" y="126" width="256" height="255"/></clipPath><clipPath id="clip2"><rect x="-539" y="126" width="256" height="255"/></clipPath><clipPath id="clip3"><rect x="-539" y="126" width="256" height="255"/></clipPath><clipPath id="clip4"><rect x="-215" y="126" width="256" height="256"/></clipPath><clipPath id="clip5"><rect x="-215" y="126" width="256" height="256"/></clipPath><clipPath id="clip6"><rect x="-215" y="126" width="256" height="256"/></clipPath><clipPath id="clip7"><rect x="99" y="124" width="256" height="256"/></clipPath><clipPath id="clip8"><rect x="99" y="124" width="256" height="256"/></clipPath><clipPath id="clip9"><rect x="99" y="124" width="256" height="256"/></clipPath><clipPath id="clip10"><rect x="418" y="122" width="256" height="256"/></clipPath><clipPath id="clip11"><rect x="418" y="122" width="256" height="256"/></clipPath><clipPath id="clip12"><rect x="418" y="122" width="256" height="256"/></clipPath><clipPath id="clip13"><rect x="1228" y="-170" width="558" height="336"/></clipPath><clipPath id="clip14"><rect x="1228" y="-170" width="558" height="335"/></clipPath><clipPath id="clip15"><rect x="1228" y="-170" width="558" height="335"/></clipPath><clipPath id="clip16"><rect x="1228" y="-170" width="558" height="335"/></clipPath><clipPath id="clip17"><rect x="-580" y="295" width="302" height="161"/></clipPath><clipPath id="clip18"><rect x="-580" y="295" width="302" height="161"/></clipPath><clipPath id="clip19"><rect x="-620" y="295" width="597" height="196"/></clipPath><clipPath id="clip20"><rect x="-620" y="295" width="597" height="196"/></clipPath><clipPath id="clip21"><rect x="-553" y="-284" width="1142" height="239"/></clipPath><clipPath id="clip22"><rect x="-553" y="-284" width="1142" height="239"/></clipPath><clipPath id="clip23"><rect x="-553" y="-284" width="1142" height="239"/></clipPath><clipPath id="clip24"><rect x="-553" y="-284" width="1142" height="239"/></clipPath><clipPath id="clip25"><rect x="-245" y="294" width="305" height="162"/></clipPath><clipPath id="clip26"><rect x="-245" y="294" width="305" height="162"/></clipPath><clipPath id="clip27"><rect x="-284" y="294" width="599" height="197"/></clipPath><clipPath id="clip28"><rect x="-284" y="294" width="599" height="197"/></clipPath><clipPath id="clip29"><rect x="71" y="295" width="302" height="161"/></clipPath><clipPath id="clip30"><rect x="71" y="295" width="302" height="161"/></clipPath><clipPath id="clip31"><rect x="31" y="295" width="597" height="196"/></clipPath><clipPath id="clip32"><rect x="31" y="295" width="597" height="196"/></clipPath><clipPath id="clip33"><rect x="429" y="295" width="303" height="161"/></clipPath><clipPath id="clip34"><rect x="429" y="295" width="303" height="161"/></clipPath><clipPath id="clip35"><rect x="389" y="295" width="599" height="196"/></clipPath><clipPath id="clip36"><rect x="389" y="295" width="599" height="196"/></clipPath><clipPath id="clip37"><rect x="1158" y="112" width="710" height="232"/></clipPath><clipPath id="clip38"><rect x="1158" y="112" width="710" height="232"/></clipPath><clipPath id="clip39"><rect x="1158" y="112" width="710" height="232"/></clipPath><clipPath id="clip40"><rect x="1158" y="112" width="710" height="232"/></clipPath></defs><g clip-path="url(#clip0)" transform="translate(752 336)"><rect x="-752" y="-336" width="2794" height="807" fill="#FFFFFF"/><path d="M-472.5-97.5001 1218.19-97.4998" stroke="#3A548A" stroke-width="22.9167" stroke-miterlimit="8" fill="none" fill-rule="evenodd"/><path d="M-462.5-108.5-462.499 99.445" stroke="#3A548A" stroke-width="22.9167" stroke-miterlimit="8" fill="none" fill-rule="evenodd"/><path d="M-149.5-97.5001-149.5 110.445" stroke="#3A548A" stroke-width="22.9167" stroke-miterlimit="8" fill="none" fill-rule="evenodd"/><path d="M162.5-97.5001 162.5 110.445" stroke="#3A548A" stroke-width="22.9167" stroke-miterlimit="8" fill="none" fill-rule="evenodd"/><path d="M474.5-97.5001 474.5 110.445" stroke="#3A548A" stroke-width="22.9167" stroke-miterlimit="8" fill="none" fill-rule="evenodd"/><path d="M589.5-103.5 589.5 104.445" stroke="#3A548A" stroke-width="22.9167" stroke-miterlimit="8" fill="none" fill-rule="evenodd"/><rect x="1220" y="-173" width="580" height="295" stroke="#3A548A" stroke-width="18.3333" stroke-miterlimit="8" fill="none"/><path d="M-542.802 267C-556.562 245.572-570.322 224.145-572.288 204.933-574.254 185.722-573.271 160.6-554.596 151.733-535.922 142.867-476.95 154.689-460.242 151.733-443.534 148.778-448.939 141.389-454.345 134" stroke="#FFC000" stroke-width="13.75" stroke-miterlimit="8" fill="none" fill-rule="evenodd"/><path d="M-419.463 130.015-424.596 144.491C-427.431 152.486-438.184 155.97-448.615 152.271-459.045 148.573-465.203 139.094-462.368 131.099L-457.236 116.622Z" fill="#FFC000" fill-rule="evenodd"/><path d="M0 0 10.4135 26.0366" stroke="#FFC000" stroke-width="11.4583" stroke-miterlimit="8" fill="none" fill-rule="evenodd" transform="matrix(-1 0 0 1 -440.087 108.5)"/><path d="M0 0 10.4135 26.0366" stroke="#FFC000" stroke-width="11.4583" stroke-miterlimit="8" fill="none" fill-rule="evenodd" transform="matrix(-1 0 0 1 -423.086 114.5)"/><g clip-path="url(#clip1)"><g clip-path="url(#clip2)"><g clip-path="url(#clip3)"><path d="M84.9999 164.687C84.9999 176.423 75.486 185.937 63.7499 185.937 52.0139 185.937 42.5 176.423 42.5 164.687 42.5 152.951 52.0139 143.437 63.7499 143.437 75.486 143.437 84.9999 152.951 84.9999 164.687Z" fill="#D9D9D9" transform="matrix(1 0 0 1 -539 126)"/><path d="M212.5 164.687C212.5 176.423 202.986 185.937 191.25 185.937 179.514 185.937 170 176.423 170 164.687 170 152.951 179.514 143.437 191.25 143.437 202.986 143.437 212.5 152.951 212.5 164.687Z" fill="#D9D9D9" transform="matrix(1 0 0 1 -539 126)"/><path d="M103.594 111.562 103.594 79.6874 139.984 79.6874C142.906 79.6874 145.562 80.7499 147.422 82.8749L176.109 111.562 103.594 111.562ZM92.9686 111.562 25.7656 111.562 54.4531 82.8749C56.5781 80.7499 59.2343 79.6874 61.8906 79.6874L92.9686 79.6874 92.9686 111.562ZM217.812 111.562 195.765 111.562C192.844 111.562 190.187 110.5 188.328 108.375L154.859 75.1718C150.875 71.1874 145.562 69.0624 139.719 69.0624L61.8906 69.0624C56.3124 69.0624 50.7343 71.1874 46.7499 75.1718L13.8125 108.375C11.6875 110.5 10.625 113.156 10.625 116.078L10.625 143.437C10.625 155.125 20.1875 164.687 31.875 164.687L34.5312 164.687C34.5312 148.484 47.5468 135.469 63.7499 135.469 79.953 135.469 92.9686 148.484 92.9686 164.687L162.031 164.687C162.031 148.484 175.047 135.469 191.25 135.469 207.453 135.469 220.468 148.484 220.468 164.687L233.75 164.687C239.593 164.687 244.375 159.906 244.375 154.062L244.375 138.125C244.375 123.515 232.422 111.562 217.812 111.562Z" fill="#D9D9D9" transform="matrix(1 0 0 1 -539 126)"/></g></g></g><path d="M-217.802 268C-231.562 246.572-245.322 225.145-247.288 205.933-249.253 186.722-248.27 161.6-229.596 152.734-210.922 143.867-151.951 155.689-135.242 152.734-118.534 149.778-123.939 142.389-129.345 135" stroke="#FFC000" stroke-width="13.75" stroke-miterlimit="8" fill="none" fill-rule="evenodd"/><path d="M-94.4066 130.67-99.5394 145.147C-102.374 153.142-113.128 156.625-123.558 152.927-133.989 149.228-140.147 139.749-137.312 131.754L-132.179 117.278Z" fill="#FFC000" fill-rule="evenodd"/><path d="M0 0 10.4135 26.0366" stroke="#FFC000" stroke-width="11.4583" stroke-miterlimit="8" fill="none" fill-rule="evenodd" transform="matrix(-1 0 0 1 -115.086 109.5)"/><path d="M0 0 10.4135 26.0366" stroke="#FFC000" stroke-width="11.4583" stroke-miterlimit="8" fill="none" fill-rule="evenodd" transform="matrix(-1 0 0 1 -98.0866 114.5)"/><g clip-path="url(#clip4)"><g clip-path="url(#clip5)"><g clip-path="url(#clip6)"><path d="M-129 291.687C-129 303.423-138.514 312.937-150.25 312.937-161.986 312.937-171.5 303.423-171.5 291.687-171.5 279.951-161.986 270.437-150.25 270.437-138.514 270.437-129 279.951-129 291.687Z" fill="#D9D9D9"/><path d="M-1.50011 291.687C-1.50011 303.423-11.0141 312.937-22.7501 312.937-34.4862 312.937-44.0001 303.423-44.0001 291.687-44.0001 279.951-34.4862 270.437-22.7501 270.437-11.0141 270.437-1.50011 279.951-1.50011 291.687Z" fill="#D9D9D9"/><path d="M-110.406 238.562-110.406 206.687-74.0157 206.687C-71.0939 206.687-68.4376 207.75-66.5782 209.875L-37.8907 238.562-110.406 238.562ZM-121.031 238.562-188.235 238.562-159.547 209.875C-157.422 207.75-154.766 206.687-152.11 206.687L-121.031 206.687-121.031 238.562ZM3.81239 238.562-18.2345 238.562C-21.1564 238.562-23.8126 237.5-25.672 235.375L-59.1407 202.172C-63.1251 198.187-68.4376 196.062-74.2814 196.062L-152.11 196.062C-157.688 196.062-163.266 198.187-167.25 202.172L-200.188 235.375C-202.313 237.5-203.375 240.156-203.375 243.078L-203.375 270.437C-203.375 282.125-193.813 291.687-182.125 291.687L-179.469 291.687C-179.469 275.484-166.453 262.469-150.25 262.469-134.047 262.469-121.031 275.484-121.031 291.687L-51.9689 291.687C-51.9689 275.484-38.9532 262.469-22.7501 262.469-6.547 262.469 6.46864 275.484 6.46864 291.687L19.7499 291.687C25.5936 291.687 30.3749 286.906 30.3749 281.062L30.3749 265.125C30.3749 250.515 18.4218 238.562 3.81239 238.562Z" fill="#D9D9D9"/></g></g></g><path d="M95.198 265C81.4379 243.572 67.6779 222.145 65.7122 202.933 63.7464 183.722 64.7295 158.6 83.4037 149.733 102.078 140.867 161.05 152.689 177.758 149.733 194.467 146.778 189.061 139.389 183.655 132" stroke="#FFC000" stroke-width="13.75" stroke-miterlimit="8" fill="none" fill-rule="evenodd"/><path d="M218.286 127.898 213.153 142.375C210.319 150.37 199.565 153.853 189.134 150.155 178.704 146.456 172.546 136.977 175.381 128.982L180.514 114.506Z" fill="#FFC000" fill-rule="evenodd"/><path d="M0 0 10.4135 26.0366" stroke="#FFC000" stroke-width="11.4583" stroke-miterlimit="8" fill="none" fill-rule="evenodd" transform="matrix(-1 0 0 1 196.914 106.5)"/><path d="M0 0 10.4135 26.0366" stroke="#FFC000" stroke-width="11.4583" stroke-miterlimit="8" fill="none" fill-rule="evenodd" transform="matrix(-1 0 0 1 214.914 112.5)"/><g clip-path="url(#clip7)"><g clip-path="url(#clip8)"><g clip-path="url(#clip9)"><path d="M184 288.688C184 300.424 174.486 309.938 162.75 309.938 151.014 309.938 141.5 300.424 141.5 288.688 141.5 276.952 151.014 267.438 162.75 267.438 174.486 267.438 184 276.952 184 288.688Z" fill="#D9D9D9"/><path d="M311.5 288.688C311.5 300.424 301.986 309.938 290.25 309.938 278.514 309.938 269 300.424 269 288.688 269 276.952 278.514 267.438 290.25 267.438 301.986 267.438 311.5 276.952 311.5 288.688Z" fill="#D9D9D9"/><path d="M202.594 235.563 202.594 203.688 238.984 203.688C241.906 203.688 244.563 204.75 246.422 206.875L275.109 235.563 202.594 235.563ZM191.969 235.563 124.766 235.563 153.453 206.875C155.578 204.75 158.234 203.688 160.891 203.688L191.969 203.688 191.969 235.563ZM316.813 235.563 294.766 235.563C291.844 235.563 289.188 234.5 287.328 232.375L253.859 199.172C249.875 195.188 244.563 193.063 238.719 193.063L160.891 193.063C155.313 193.063 149.734 195.188 145.75 199.172L112.812 232.375C110.688 234.5 109.625 237.156 109.625 240.078L109.625 267.438C109.625 279.125 119.188 288.688 130.875 288.688L133.531 288.688C133.531 272.485 146.547 259.469 162.75 259.469 178.953 259.469 191.969 272.485 191.969 288.688L261.031 288.688C261.031 272.485 274.047 259.469 290.25 259.469 306.453 259.469 319.469 272.485 319.469 288.688L332.75 288.688C338.594 288.688 343.375 283.906 343.375 278.063L343.375 262.125C343.375 247.516 331.422 235.563 316.813 235.563Z" fill="#D9D9D9"/></g></g></g><path d="M414.198 262C400.438 240.733 386.678 219.467 384.712 200.4 382.746 181.333 383.729 156.4 402.404 147.6 421.078 138.8 480.05 150.533 496.758 147.6 513.467 144.667 508.061 137.333 502.655 130" stroke="#FFC000" stroke-width="13.75" stroke-miterlimit="8" fill="none" fill-rule="evenodd"/><path d="M537.73 125.501 532.598 139.977C529.763 147.973 519.009 151.456 508.579 147.758 498.148 144.059 491.99 134.58 494.825 126.585L499.958 112.108Z" fill="#FFC000" fill-rule="evenodd"/><path d="M0 0 10.4135 26.0366" stroke="#FFC000" stroke-width="11.4583" stroke-miterlimit="8" fill="none" fill-rule="evenodd" transform="matrix(-1 0 0 1 516.913 104.5)"/><path d="M0 0 10.4135 26.0366" stroke="#FFC000" stroke-width="11.4583" stroke-miterlimit="8" fill="none" fill-rule="evenodd" transform="matrix(-1 0 0 1 533.914 109.5)"/><g clip-path="url(#clip10)"><g clip-path="url(#clip11)"><g clip-path="url(#clip12)"><path d="M503 286.688C503 298.424 493.486 307.938 481.75 307.938 470.014 307.938 460.5 298.424 460.5 286.688 460.5 274.952 470.014 265.438 481.75 265.438 493.486 265.438 503 274.952 503 286.688Z" fill="#D9D9D9"/><path d="M630.5 286.688C630.5 298.424 620.986 307.938 609.25 307.938 597.514 307.938 588 298.424 588 286.688 588 274.952 597.514 265.438 609.25 265.438 620.986 265.438 630.5 274.952 630.5 286.688Z" fill="#D9D9D9"/><path d="M521.594 233.563 521.594 201.688 557.984 201.688C560.906 201.688 563.562 202.75 565.422 204.875L594.109 233.563 521.594 233.563ZM510.969 233.563 443.766 233.563 472.453 204.875C474.578 202.75 477.234 201.688 479.891 201.688L510.969 201.688 510.969 233.563ZM635.813 233.563 613.766 233.563C610.844 233.563 608.188 232.5 606.328 230.375L572.859 197.172C568.875 193.188 563.562 191.063 557.719 191.063L479.891 191.063C474.313 191.063 468.734 193.188 464.75 197.172L431.812 230.375C429.688 232.5 428.625 235.156 428.625 238.078L428.625 265.438C428.625 277.125 438.188 286.688 449.875 286.688L452.531 286.688C452.531 270.484 465.547 257.469 481.75 257.469 497.953 257.469 510.969 270.484 510.969 286.688L580.031 286.688C580.031 270.484 593.047 257.469 609.25 257.469 625.453 257.469 638.469 270.484 638.469 286.688L651.75 286.688C657.594 286.688 662.375 281.906 662.375 276.063L662.375 260.125C662.375 245.516 650.422 233.563 635.813 233.563Z" fill="#D9D9D9"/></g></g></g><g clip-path="url(#clip13)"><g clip-path="url(#clip14)"><g clip-path="url(#clip15)"><g clip-path="url(#clip16)"><text fill="#3A548A" font-family="Calibri,Calibri_MSFontService,sans-serif" font-weight="400" font-size="92" transform="matrix(1.10099 0 0 1.10231 1290.26 -43)">Anschluss<tspan font-size="92" x="366.094" y="0">-</tspan><tspan font-size="92" x="0" y="109.769">leistun</tspan><tspan font-size="92" x="250.479" y="109.769">g</tspan></text></g></g></g></g><g clip-path="url(#clip17)"><g clip-path="url(#clip18)"><g clip-path="url(#clip19)"><g clip-path="url(#clip20)"><text fill="#3A548A" font-family="Calibri,Calibri_MSFontService,sans-serif" font-weight="700" font-size="92" transform="matrix(0.999649 0 0 1.00068 -564.327 410)">7<tspan font-size="92" x="47" y="0">,</tspan><tspan font-size="92" x="69.8958" y="0">5</tspan><tspan font-size="92" x="136.927" y="0">kW</tspan></text></g></g></g></g><g clip-path="url(#clip21)"><g clip-path="url(#clip22)"><g clip-path="url(#clip23)"><g clip-path="url(#clip24)"><text fill="#3A548A" font-family="Calibri,Calibri_MSFontService,sans-serif" font-weight="400" font-size="92" transform="matrix(1.22953 0 0 1.23196 -483.368 -144)">Mit Lastmanagement</text></g></g></g></g><g clip-path="url(#clip25)"><g clip-path="url(#clip26)"><g clip-path="url(#clip27)"><g clip-path="url(#clip28)"><text fill="#3A548A" font-family="Calibri,Calibri_MSFontService,sans-serif" font-weight="700" font-size="92" transform="matrix(1.00296 0 0 1.00698 -228.275 410)">7<tspan font-size="92" x="47" y="0">,</tspan><tspan font-size="92" x="69.8958" y="0">5</tspan><tspan font-size="92" x="136.927" y="0">kW</tspan></text></g></g></g></g><g clip-path="url(#clip29)"><g clip-path="url(#clip30)"><g clip-path="url(#clip31)"><g clip-path="url(#clip32)"><text fill="#3A548A" font-family="Calibri,Calibri_MSFontService,sans-serif" font-weight="700" font-size="92" transform="matrix(0.999649 0 0 1.00068 86.6728 410)">7<tspan font-size="92" x="47" y="0">,</tspan><tspan font-size="92" x="69.8958" y="0">5</tspan><tspan font-size="92" x="136.927" y="0">kW</tspan></text></g></g></g></g><g clip-path="url(#clip33)"><g clip-path="url(#clip34)"><g clip-path="url(#clip35)"><g clip-path="url(#clip36)"><text fill="#3A548A" font-family="Calibri,Calibri_MSFontService,sans-serif" font-weight="700" font-size="92" transform="matrix(1.00296 0 0 1.00068 444.725 410)">7<tspan font-size="92" x="47" y="0">,</tspan><tspan font-size="92" x="69.8958" y="0">5</tspan><tspan font-size="92" x="136.927" y="0">kW</tspan></text></g></g></g></g><g clip-path="url(#clip37)"><g clip-path="url(#clip38)"><g clip-path="url(#clip39)"><g clip-path="url(#clip40)"><text fill="#3A548A" font-family="Calibri,Calibri_MSFontService,sans-serif" font-weight="700" font-size="92" transform="matrix(1.18928 0 0 1.19072 1223.68 248)">m<tspan font-size="92" x="74.4794" y="0">ax</tspan><tspan font-size="92" x="160.479" y="0">. </tspan><tspan font-size="92" x="206.479" y="0">30 </tspan><tspan font-size="92" x="321.479" y="0">kW</tspan></text></g></g></g></g></g></svg>