<svg width="4049" height="2202" xmlns="http://www.w3.org/2000/svg" xmlns:xlink="http://www.w3.org/1999/xlink" overflow="hidden"><defs><clipPath id="clip0"><rect x="194" y="0" width="4049" height="2202"/></clipPath><clipPath id="clip1"><rect x="494" y="275" width="3528" height="1386"/></clipPath><clipPath id="clip2"><rect x="494" y="275" width="3528" height="1386"/></clipPath><clipPath id="clip3"><rect x="302" y="228" width="3795" height="1570"/></clipPath><clipPath id="clip4"><rect x="302" y="228" width="3795" height="1570"/></clipPath><clipPath id="clip5"><rect x="302" y="228" width="3795" height="1570"/></clipPath><clipPath id="clip6"><rect x="302" y="228" width="3795" height="1570"/></clipPath><clipPath id="clip7"><rect x="302" y="228" width="3795" height="1570"/></clipPath><clipPath id="clip8"><rect x="302" y="228" width="3795" height="1570"/></clipPath><clipPath id="clip9"><rect x="302" y="228" width="3795" height="1570"/></clipPath><clipPath id="clip10"><rect x="302" y="228" width="3795" height="1570"/></clipPath><clipPath id="clip11"><rect x="302" y="228" width="3795" height="1570"/></clipPath><clipPath id="clip12"><rect x="302" y="228" width="3795" height="1570"/></clipPath><clipPath id="clip13"><rect x="302" y="228" width="3795" height="1570"/></clipPath><clipPath id="clip14"><rect x="302" y="228" width="3795" height="1570"/></clipPath><clipPath id="clip15"><rect x="302" y="228" width="3795" height="1570"/></clipPath><clipPath id="clip16"><rect x="302" y="228" width="3795" height="1570"/></clipPath><clipPath id="clip17"><rect x="302" y="228" width="3795" height="1570"/></clipPath><clipPath id="clip18"><rect x="302" y="228" width="3795" height="1570"/></clipPath><clipPath id="clip19"><rect x="302" y="228" width="3795" height="1570"/></clipPath><clipPath id="clip20"><rect x="302" y="228" width="3795" height="1570"/></clipPath><clipPath id="clip21"><rect x="302" y="228" width="3795" height="1570"/></clipPath><clipPath id="clip22"><rect x="302" y="228" width="3795" height="1570"/></clipPath><clipPath id="clip23"><rect x="302" y="228" width="3795" height="1570"/></clipPath><clipPath id="clip24"><rect x="302" y="228" width="3795" height="1570"/></clipPath><clipPath id="clip25"><rect x="302" y="228" width="3795" height="1570"/></clipPath><clipPath id="clip26"><rect x="302" y="228" width="3795" height="1570"/></clipPath><clipPath id="clip27"><rect x="302" y="228" width="3795" height="1570"/></clipPath><clipPath id="clip28"><rect x="302" y="228" width="3795" height="1570"/></clipPath><clipPath id="clip29"><rect x="302" y="228" width="3795" height="1570"/></clipPath><clipPath id="clip30"><rect x="302" y="228" width="3795" height="1570"/></clipPath><clipPath id="clip31"><rect x="302" y="228" width="3795" height="1570"/></clipPath><clipPath id="clip32"><rect x="302" y="228" width="3795" height="1570"/></clipPath><clipPath id="clip33"><rect x="302" y="228" width="3795" height="1570"/></clipPath><clipPath id="clip34"><rect x="302" y="228" width="3795" height="1570"/></clipPath><clipPath id="clip35"><rect x="302" y="228" width="3795" height="1570"/></clipPath><clipPath id="clip36"><rect x="1850" y="1774" width="1148" height="258"/></clipPath><clipPath id="clip37"><rect x="1850" y="1774" width="1148" height="258"/></clipPath><clipPath id="clip38"><rect x="1850" y="1774" width="1148" height="258"/></clipPath><clipPath id="clip39"><rect x="1850" y="1774" width="1148" height="258"/></clipPath><clipPath id="clip40"><rect x="603" y="1931" width="1396" height="231"/></clipPath><clipPath id="clip41"><rect x="603" y="1931" width="1396" height="231"/></clipPath><clipPath id="clip42"><rect x="603" y="1931" width="1396" height="231"/></clipPath><clipPath id="clip43"><rect x="603" y="1931" width="1396" height="231"/></clipPath><clipPath id="clip44"><rect x="2184" y="1940" width="697" height="222"/></clipPath><clipPath id="clip45"><rect x="2184" y="1940" width="697" height="222"/></clipPath><clipPath id="clip46"><rect x="2184" y="1940" width="697" height="222"/></clipPath><clipPath id="clip47"><rect x="2184" y="1940" width="697" height="222"/></clipPath><clipPath id="clip48"><rect x="3051" y="1931" width="1127" height="214"/></clipPath><clipPath id="clip49"><rect x="3051" y="1931" width="1127" height="214"/></clipPath><clipPath id="clip50"><rect x="3051" y="1931" width="1127" height="214"/></clipPath><clipPath id="clip51"><rect x="3051" y="1931" width="1127" height="214"/></clipPath><clipPath id="clip52"><rect x="215" y="463" width="275" height="852"/></clipPath><clipPath id="clip53"><rect x="215" y="463" width="275" height="852"/></clipPath><clipPath id="clip54"><rect x="215" y="463" width="275" height="852"/></clipPath><clipPath id="clip55"><rect x="215" y="463" width="275" height="852"/></clipPath></defs><g clip-path="url(#clip0)" transform="translate(-194 0)"><rect x="194" y="0" width="4049" height="2202" fill="#FFFFFF"/><g clip-path="url(#clip1)"><path d="M494 1583.05 648.021 1594.05 801.026 1597.05 954.031 1597.05 1107.04 1597.05 1261.04 1571.05 1414.05 1493.05 1567.05 1462.05 1720.06 1454.05 1874.06 1476.05 2027.07 1482.05 2180.07 1482.05 2333.08 1465.05 2487.08 1478.05 2640.09 1493.05 2793.09 1506.05 2946.1 1493.05 3100.1 1451.05 3253.11 1423.05 3406.11 1382 3559.12 1423.05 3713.12 1465.05 3866.13 1493.05 4019 1542.05 4019 1658 3866.13 1658 3713.12 1658 3559.12 1658 3406.11 1658 3253.11 1658 3100.1 1658 2946.1 1658 2793.09 1658 2640.09 1658 2487.08 1658 2333.08 1658 2180.07 1658 2027.07 1658 1874.06 1658 1720.06 1658 1567.05 1658 1414.05 1658 1261.04 1658 1107.04 1658 954.031 1658 801.026 1658 648.021 1658 494 1658Z" fill="#D9D9D9"/></g><g clip-path="url(#clip2)"><path d="M494 1583.05 648.021 1594.05 801.026 1597 954.031 1597 1107.04 1597 1261.04 1571.05 1414.05 1493.05 1567.05 1462.05 1720.06 1454.05 1874.06 1476.05 2027.07 1482.05 2180.07 1482.05 2333.08 1465.05 2487.08 1478.05 2640.09 1493.05 2793.09 1506.05 2946.1 571.019 3100.1 529.017 3253.11 501 3406.11 1382.05 3559.12 1423.05 3713.12 1465.05 3866.13 1493.05 4019 1542.05 4019 1542.05 3866.13 1493.05 3713.12 1465.05 3559.12 1423.05 3406.11 1382.05 3253.11 1423.05 3100.1 1451.05 2946.1 1493.05 2793.09 1506.05 2640.09 1493.05 2487.08 1478.05 2333.08 1465.05 2180.07 1482.05 2027.07 1482.05 1874.06 1476.05 1720.06 1454.05 1567.05 1462.05 1414.05 1493.05 1261.04 1571.05 1107.04 1597 954.031 1597 801.026 1597 648.021 1594.05 494 1583.05Z" fill="#3A548A" fill-opacity="0.780392"/></g><g clip-path="url(#clip3)"><path d="M494.5 1658.5 4019.5 1658.5" stroke="#D9D9D9" stroke-width="3.4375" stroke-linejoin="round" stroke-miterlimit="10" fill="none" fill-rule="evenodd"/></g><g clip-path="url(#clip4)"><path d="M494.5 1658.5 494.5 1675.5M647.521 1658.5 647.521 1675.5M800.526 1658.5 800.526 1675.5M954.531 1658.5 954.531 1675.5M1107.54 1658.5 1107.54 1675.5M1260.54 1658.5 1260.54 1675.5M1413.55 1658.5 1413.55 1675.5M1567.55 1658.5 1567.55 1675.5M1720.56 1658.5 1720.56 1675.5M1873.56 1658.5 1873.56 1675.5M2026.57 1658.5 2026.57 1675.5M2180.57 1658.5 2180.57 1675.5M2333.58 1658.5 2333.58 1675.5M2486.58 1658.5 2486.58 1675.5M2639.59 1658.5 2639.59 1675.5M2793.59 1658.5 2793.59 1675.5M2946.6 1658.5 2946.6 1675.5M3099.6 1658.5 3099.6 1675.5M3252.61 1658.5 3252.61 1675.5M3406.61 1658.5 3406.61 1675.5M3559.62 1658.5 3559.62 1675.5M3712.62 1658.5 3712.62 1675.5M3865.63 1658.5 3865.63 1675.5M4019.5 1658.5 4019.5 1675.5" stroke="#D9D9D9" stroke-width="3.4375" stroke-linejoin="round" stroke-miterlimit="10" fill="none"/></g><g clip-path="url(#clip5)"><text fill="#595959" font-family="Calibri,Calibri_MSFontService,sans-serif" font-weight="400" font-size="55" transform="matrix(1 0 0 1 415.686 1674)">0</text></g><g clip-path="url(#clip6)"><text fill="#595959" font-family="Calibri,Calibri_MSFontService,sans-serif" font-weight="400" font-size="55" transform="matrix(1 0 0 1 360.09 1443)">500</text></g><g clip-path="url(#clip7)"><text fill="#595959" font-family="Calibri,Calibri_MSFontService,sans-serif" font-weight="400" font-size="55" transform="matrix(1 0 0 1 332.292 1213)">1000</text></g><g clip-path="url(#clip8)"><text fill="#595959" font-family="Calibri,Calibri_MSFontService,sans-serif" font-weight="400" font-size="55" transform="matrix(1 0 0 1 332.292 982)">1500</text></g><g clip-path="url(#clip9)"><text fill="#595959" font-family="Calibri,Calibri_MSFontService,sans-serif" font-weight="400" font-size="55" transform="matrix(1 0 0 1 332.292 752)">2000</text></g><g clip-path="url(#clip10)"><text fill="#595959" font-family="Calibri,Calibri_MSFontService,sans-serif" font-weight="400" font-size="55" transform="matrix(1 0 0 1 332.292 522)">2500</text></g><g clip-path="url(#clip11)"><text fill="#595959" font-family="Calibri,Calibri_MSFontService,sans-serif" font-weight="400" font-size="55" transform="matrix(1 0 0 1 332.292 291)">3000</text></g><g clip-path="url(#clip12)"><text fill="#595959" font-family="Calibri,Calibri_MSFontService,sans-serif" font-weight="400" font-size="55" transform="matrix(1 0 0 1 480.475 1745)">1</text></g><g clip-path="url(#clip13)"><text fill="#595959" font-family="Calibri,Calibri_MSFontService,sans-serif" font-weight="400" font-size="55" transform="matrix(1 0 0 1 633.732 1745)">2</text></g><g clip-path="url(#clip14)"><text fill="#595959" font-family="Calibri,Calibri_MSFontService,sans-serif" font-weight="400" font-size="55" transform="matrix(1 0 0 1 786.989 1745)">3</text></g><g clip-path="url(#clip15)"><text fill="#595959" font-family="Calibri,Calibri_MSFontService,sans-serif" font-weight="400" font-size="55" transform="matrix(1 0 0 1 940.247 1745)">4</text></g><g clip-path="url(#clip16)"><text fill="#595959" font-family="Calibri,Calibri_MSFontService,sans-serif" font-weight="400" font-size="55" transform="matrix(1 0 0 1 1093.5 1745)">5</text></g><g clip-path="url(#clip17)"><text fill="#595959" font-family="Calibri,Calibri_MSFontService,sans-serif" font-weight="400" font-size="55" transform="matrix(1 0 0 1 1246.76 1745)">6</text></g><g clip-path="url(#clip18)"><text fill="#595959" font-family="Calibri,Calibri_MSFontService,sans-serif" font-weight="400" font-size="55" transform="matrix(1 0 0 1 1400.02 1745)">7</text></g><g clip-path="url(#clip19)"><text fill="#595959" font-family="Calibri,Calibri_MSFontService,sans-serif" font-weight="400" font-size="55" transform="matrix(1 0 0 1 1553.27 1745)">8</text></g><g clip-path="url(#clip20)"><text fill="#595959" font-family="Calibri,Calibri_MSFontService,sans-serif" font-weight="400" font-size="55" transform="matrix(1 0 0 1 1706.53 1745)">9</text></g><g clip-path="url(#clip21)"><text fill="#595959" font-family="Calibri,Calibri_MSFontService,sans-serif" font-weight="400" font-size="55" transform="matrix(1 0 0 1 1845.89 1745)">10</text></g><g clip-path="url(#clip22)"><text fill="#595959" font-family="Calibri,Calibri_MSFontService,sans-serif" font-weight="400" font-size="55" transform="matrix(1 0 0 1 1999.15 1745)">11</text></g><g clip-path="url(#clip23)"><text fill="#595959" font-family="Calibri,Calibri_MSFontService,sans-serif" font-weight="400" font-size="55" transform="matrix(1 0 0 1 2152.4 1745)">12</text></g><g clip-path="url(#clip24)"><text fill="#595959" font-family="Calibri,Calibri_MSFontService,sans-serif" font-weight="400" font-size="55" transform="matrix(1 0 0 1 2305.66 1745)">13</text></g><g clip-path="url(#clip25)"><text fill="#595959" font-family="Calibri,Calibri_MSFontService,sans-serif" font-weight="400" font-size="55" transform="matrix(1 0 0 1 2458.92 1745)">14</text></g><g clip-path="url(#clip26)"><text fill="#595959" font-family="Calibri,Calibri_MSFontService,sans-serif" font-weight="400" font-size="55" transform="matrix(1 0 0 1 2612.17 1745)">15</text></g><g clip-path="url(#clip27)"><text fill="#595959" font-family="Calibri,Calibri_MSFontService,sans-serif" font-weight="400" font-size="55" transform="matrix(1 0 0 1 2765.43 1745)">16</text></g><g clip-path="url(#clip28)"><text fill="#595959" font-family="Calibri,Calibri_MSFontService,sans-serif" font-weight="400" font-size="55" transform="matrix(1 0 0 1 2918.69 1745)">17</text></g><g clip-path="url(#clip29)"><text fill="#595959" font-family="Calibri,Calibri_MSFontService,sans-serif" font-weight="400" font-size="55" transform="matrix(1 0 0 1 3071.95 1745)">18</text></g><g clip-path="url(#clip30)"><text fill="#595959" font-family="Calibri,Calibri_MSFontService,sans-serif" font-weight="400" font-size="55" transform="matrix(1 0 0 1 3225.2 1745)">19</text></g><g clip-path="url(#clip31)"><text fill="#595959" font-family="Calibri,Calibri_MSFontService,sans-serif" font-weight="400" font-size="55" transform="matrix(1 0 0 1 3378.46 1745)">20</text></g><g clip-path="url(#clip32)"><text fill="#595959" font-family="Calibri,Calibri_MSFontService,sans-serif" font-weight="400" font-size="55" transform="matrix(1 0 0 1 3531.72 1745)">21</text></g><g clip-path="url(#clip33)"><text fill="#595959" font-family="Calibri,Calibri_MSFontService,sans-serif" font-weight="400" font-size="55" transform="matrix(1 0 0 1 3684.97 1745)">22</text></g><g clip-path="url(#clip34)"><text fill="#595959" font-family="Calibri,Calibri_MSFontService,sans-serif" font-weight="400" font-size="55" transform="matrix(1 0 0 1 3838.23 1745)">23</text></g><g clip-path="url(#clip35)"><text fill="#595959" font-family="Calibri,Calibri_MSFontService,sans-serif" font-weight="400" font-size="55" transform="matrix(1 0 0 1 3991.49 1745)">24</text></g><rect x="303" y="228" width="188" height="1571" fill="#FFFFFF"/><path d="M4.58333-1.02951e-06 4.58369 1583.75-4.58298 1583.75-4.58333 1.02951e-06ZM13.7504 1579.17 0.000360892 1606.67-13.7496 1579.17Z" fill="#7F7F7F" transform="matrix(1 0 0 -1 491.5 1711.17)"/><path d="M459.5 1652.92 4074.96 1652.92 4074.96 1662.08 459.5 1662.08ZM4070.37 1643.75 4097.87 1657.5 4070.37 1671.25Z" fill="#7F7F7F"/><path d="M491.5 861.5 4011.56 861.5" stroke="#FFC000" stroke-width="9.16667" stroke-miterlimit="8" stroke-dasharray="36.6667 27.5" fill="none" fill-rule="evenodd"/><rect x="2877" y="463" width="455" height="394" fill="#FFFFFF" fill-opacity="0.721569"/><path d="M487.5 2047.5 706.304 2047.5" stroke="#D9D9D9" stroke-width="22.9167" stroke-miterlimit="8" fill="none" fill-rule="evenodd"/><path d="M1981.5 2047.5 2200.3 2047.5" stroke="#657AA4" stroke-width="22.9167" stroke-miterlimit="8" fill="none" fill-rule="evenodd"/><path d="M2845.5 2047.5 3064.3 2047.5" stroke="#FFC000" stroke-width="22.9167" stroke-miterlimit="8" fill="none" fill-rule="evenodd"/><g clip-path="url(#clip36)"><g clip-path="url(#clip37)"><g clip-path="url(#clip38)"><g clip-path="url(#clip39)"><text font-family="Calibri,Calibri_MSFontService,sans-serif" font-weight="400" font-size="83" transform="matrix(1.48383 0 0 1.48276 2243.1 1925)">Uhrzeit</text></g></g></g></g><g clip-path="url(#clip40)"><g clip-path="url(#clip41)"><g clip-path="url(#clip42)"><g clip-path="url(#clip43)"><text font-family="Calibri,Calibri_MSFontService,sans-serif" font-weight="400" font-size="83" transform="matrix(1.31356 0 0 1.31429 738.231 2067)">Leistungsbedarf Gebäude</text></g></g></g></g><g clip-path="url(#clip44)"><g clip-path="url(#clip45)"><g clip-path="url(#clip46)"><g clip-path="url(#clip47)"><text font-family="Calibri,Calibri_MSFontService,sans-serif" font-weight="400" font-size="83" transform="matrix(1.27007 0 0 1.26857 2248.78 2071)">Ladeleistung</text></g></g></g></g><g clip-path="url(#clip48)"><g clip-path="url(#clip49)"><g clip-path="url(#clip50)"><g clip-path="url(#clip51)"><text font-family="Calibri,Calibri_MSFontService,sans-serif" font-weight="400" font-size="83" transform="matrix(1.2197 0 0 1.21714 3111.89 2057)">Hausanschlussleistung</text></g></g></g></g><g clip-path="url(#clip52)"><g clip-path="url(#clip53)"><g clip-path="url(#clip54)"><g clip-path="url(#clip55)"><text font-family="Calibri,Calibri_MSFontService,sans-serif" font-weight="400" font-size="92" transform="matrix(-2.60793e-16 -1.41833 1.41969 -2.60544e-16 377.606 1235)">Leistung</text></g></g></g></g></g></svg>